<?xml version="1.0" encoding="utf-8"?>
<!-- Generator: Adobe Illustrator 19.2.1, SVG Export Plug-In . SVG Version: 6.00 Build 0)  -->
<svg version="1.1" id="layer" xmlns="http://www.w3.org/2000/svg" xmlns:xlink="http://www.w3.org/1999/xlink" x="0px" y="0px"
	 viewBox="0 0 652 652" style="enable-background:new 0 0 652 652;" xml:space="preserve">
<path d="M610.5,374.9l-45.2-110.2h-8.5l-42.7,110.2h-10.5v4.2h28.7v-4.2h-10.5l14.6-37.6h37.2l15.4,37.6h-10.1v4.2h8.3
	c8.4,0,16.8,0,25.3,0h8.3v-4.2H610.5 M538,333.1l16.4-42.4l17.4,42.4H538z"/>
<polyline points="91.2,269 101.5,269 101.5,336.9 101.3,336.9 54.8,264.7 20.6,264.7 20.6,269 30.9,269 30.9,374.9 20.6,374.9 
	20.6,379.2 49.3,379.2 49.3,374.9 38.9,374.9 38.9,280.3 39.5,280.3 103.5,379.2 109.5,379.2 109.5,269 119.8,269 119.8,264.7 
	91.2,264.7 91.2,269 "/>
<path d="M238.5,264.7h-44.9v4.2h10.3v106h-10.3v4.2h84.3v-36h-2.1c-1,4.4-2.4,8.6-4.3,12.5c-1.8,3.9-4.1,7.3-6.9,10.2
	c-2.8,2.9-6,5.1-9.6,6.8c-3.6,1.6-7.2,2.4-12.1,2.4h-17.8v-54.6h8c3.4,0,7.9,0.6,10.2,1.8c2.3,1.3,4.2,2.9,5.8,5
	c1.5,2.1,2.7,4.3,3.7,7.1c1,2.8,1.7,4.7,2.4,7.6h2.1v-48.2h-2.1c-0.7,3.5-1.5,5.4-2.6,8.2c-1.2,2.8-2.4,5.3-4.1,7.3
	c-1.6,2-3.7,3.6-6.2,4.6c-2.5,1.1-5.5,1.6-9.1,1.6h-8V269h23c5.3,0,8.8,1,12.1,2.9c3.3,1.9,6,4.2,8.1,6.7c2.1,2.6,3.7,5.3,4.9,8
	c1.2,2.7,2,5,2.5,6.7h2.1v-28.6H238.5"/>
<path d="M425.1,269h10.3l-29,41.5L382.6,269h10.3v-4.2h-8.3c-8.4,0-16.8,0-25.3,0h-8.3v4.2h10.3l33.4,58.2l-33.4,47.8h-10.3v4.2
	h28.7v-4.2h-10.3l28.9-41.5l23.8,41.5h-10.3v4.2h8.3c8.4,0,16.8,0,25.3,0h8.3v-4.2h-10.3L410,316.8l33.3-47.8h10.3v-4.2h-28.6V269"
	/>
</svg>
